<svg width="481" height="481" viewBox="0 0 481 481" fill="none" xmlns="http://www.w3.org/2000/svg">
<mask id="path-1-outside-1_547_12" maskUnits="userSpaceOnUse" x="112.972" y="58.9333" width="236" height="358" fill="black">
<rect fill="white" x="112.972" y="58.9333" width="236" height="358"/>
<path d="M217.178 63.4836C210.156 64.7518 200.315 68.4862 194.068 72.244C183.851 78.3974 172.765 91.6672 168.608 102.635C163.888 115.341 163.324 119.005 163.418 137.09C163.418 153.06 163.606 155.08 166.025 162.878C173.235 186.341 183.945 201.63 217.671 236.648C246.372 266.57 255.437 277.82 262.671 292.922C269.6 307.46 272.676 323.618 270.844 335.643C269.224 346.235 268.731 346.893 263.423 347.574C252.055 348.819 238.198 343.91 231.74 336.418C224.013 327.47 220.748 316.972 219.879 298.699L219.198 285.241L168.726 284.936C138.757 284.842 117.737 285.148 117.267 285.617C116.68 286.204 116.985 291.301 118.042 298.887C123.045 336.794 134.999 364.978 154.164 384.424C163.042 393.373 167.763 396.919 177.768 401.922C208.981 417.798 250.623 415.403 280.098 396.144C298.206 384.424 311.992 366.434 318.733 345.836C323.172 332.379 324.229 325.145 324.229 309.291C324.135 269.741 309.291 241.839 268.449 205.2C235.685 175.654 225.657 163.066 221.218 145.169C217.765 131.124 219.879 110.151 225.962 98.1259C228.358 93.3112 228.639 93.1233 231.528 93.7105C241.839 95.7303 253.887 105.829 258.913 116.398C263.047 125.347 264.198 130.631 264.879 144.77L265.466 157.288H277.303C292.828 157.288 293.603 155.456 278.266 155.08L266.899 154.775V145.639C266.899 129.104 262.084 114.003 253.793 104.866C249.472 100.052 239.443 93.4991 235.403 92.7475C230.096 91.7846 229.908 90.4224 234.534 84.4569C238.762 79.1725 250.81 70.2242 253.793 70.2242C258.514 70.2242 273.945 80.2293 281.46 88.1207C295.904 103.41 303.044 120.532 305.722 146.32L306.896 157.288H344.474L344.263 146.132C343.793 120.156 334.939 97.5388 319.038 81.7794C308.047 70.8113 297.736 65.5034 283.95 63.5775C277.021 62.6146 265.255 63.695 259.007 65.8087C254.756 67.2414 254.075 67.2414 247.428 65.4095C239.349 63.2018 224.318 62.2388 217.178 63.4836ZM244.352 66.7717C246.865 67.3353 249.072 68.2983 249.26 68.8854C249.472 69.3552 248.203 70.5999 246.466 71.6803C240.876 74.851 235.967 79.2664 231.74 84.6448L227.676 89.9527L220.56 90.0466C207.055 90.2345 194.725 96.1061 187.116 106.111C182.395 112.359 180.962 115.06 178.261 123.609C176.429 129.198 176.124 132.557 176.03 143.83C176.03 159.496 178.167 171.427 183.64 186.435C188.478 199.516 188.572 200.291 185.284 196.534C177.956 188.36 168.914 168.632 166.213 154.986C164.099 144.887 164.663 121.988 167.176 113.04C174.316 87.0639 194.631 68.6975 219.691 65.4095C227.019 64.4465 237.705 65.0337 244.352 66.7717ZM289.845 66.8656C308.728 71.281 326.155 87.5336 334.727 108.695C339.26 119.78 342.924 138.053 343.018 149.303V154.892H308.728L307.553 143.924C304.759 117.079 294.166 95.7303 276.246 80.7225C272.676 77.7398 267.392 73.982 264.503 72.5258C261.591 70.9992 259.195 69.2612 259.195 68.6975C259.195 65.7148 279.628 64.4465 289.845 66.8656ZM225.469 93.3112C225.469 93.8984 224.6 96.1061 223.543 98.1259C222.486 100.24 220.654 105.735 219.597 110.339C217.953 117.361 217.671 121.025 217.953 131.312C218.329 142.092 218.728 144.981 221.335 152.097C226.62 167.199 234.229 176.805 259.007 199.235C283.386 221.265 295.528 234.441 304.665 248.673C314.693 264.174 317.488 272.441 317.394 286.674C317.3 297.454 316.337 301.682 311.029 312.65C305.628 323.9 293.978 335.549 282.423 341.327C272.207 346.423 271.244 346.517 272.113 341.703C275.095 324.205 272.582 308.798 263.728 290.526C259.289 281.484 247.64 265.419 238.081 255.226C234.628 251.656 225.751 242.144 218.141 234.253C200.409 215.487 199.164 214.054 195.03 206.727C189.535 197.027 185.096 186.059 181.925 174.128C178.167 159.989 177.11 137.372 179.6 126.685C183.546 109.869 194.349 97.8441 209.287 93.8984C215.346 92.2543 225.469 91.8786 225.469 93.3112ZM146.837 288.788C147.048 290.033 148.199 295.904 149.256 301.776C156.771 341.421 177.486 369.323 205.717 377.684C217.953 381.348 235.004 379.61 247.147 373.55C253.018 370.567 264.691 358.918 267.486 353.258C269.412 349.406 270.281 348.725 277.303 345.93C288.013 341.609 293.697 337.663 301.87 328.997C311.804 318.522 316.032 309.573 319.508 291.959C320.001 289.281 320.095 289.281 321.152 290.996C321.833 292.264 322.303 298.699 322.209 309.291C322.209 324.088 322.021 326.695 319.508 336.23C308.728 378.247 275.565 406.548 233.36 409.719C194.068 412.608 164.287 398.939 143.572 368.454C134.506 355.066 126.427 334.21 122.458 314.083C120.25 302.739 118.512 288.6 119.193 287.355C119.381 286.956 125.652 286.674 132.98 286.674C146.179 286.674 146.461 286.674 146.837 288.788ZM217.859 299.192C219.104 324.581 226.714 339.096 242.52 346.611C248.297 349.312 250.035 349.688 257.457 349.688C267.18 349.688 267.486 350.064 263.141 356.217C251.961 372.493 231.246 380.666 211.494 376.627C181.15 370.379 159.848 344.098 151.275 302.175C150.219 296.961 149.35 291.301 149.35 289.657V286.674L183.358 286.862L217.272 287.167L217.859 299.192Z"/>
</mask>
<path d="M217.178 63.4836C210.156 64.7518 200.315 68.4862 194.068 72.244C183.851 78.3974 172.765 91.6672 168.608 102.635C163.888 115.341 163.324 119.005 163.418 137.09C163.418 153.06 163.606 155.08 166.025 162.878C173.235 186.341 183.945 201.63 217.671 236.648C246.372 266.57 255.437 277.82 262.671 292.922C269.6 307.46 272.676 323.618 270.844 335.643C269.224 346.235 268.731 346.893 263.423 347.574C252.055 348.819 238.198 343.91 231.74 336.418C224.013 327.47 220.748 316.972 219.879 298.699L219.198 285.241L168.726 284.936C138.757 284.842 117.737 285.148 117.267 285.617C116.68 286.204 116.985 291.301 118.042 298.887C123.045 336.794 134.999 364.978 154.164 384.424C163.042 393.373 167.763 396.919 177.768 401.922C208.981 417.798 250.623 415.403 280.098 396.144C298.206 384.424 311.992 366.434 318.733 345.836C323.172 332.379 324.229 325.145 324.229 309.291C324.135 269.741 309.291 241.839 268.449 205.2C235.685 175.654 225.657 163.066 221.218 145.169C217.765 131.124 219.879 110.151 225.962 98.1259C228.358 93.3112 228.639 93.1233 231.528 93.7105C241.839 95.7303 253.887 105.829 258.913 116.398C263.047 125.347 264.198 130.631 264.879 144.77L265.466 157.288H277.303C292.828 157.288 293.603 155.456 278.266 155.08L266.899 154.775V145.639C266.899 129.104 262.084 114.003 253.793 104.866C249.472 100.052 239.443 93.4991 235.403 92.7475C230.096 91.7846 229.908 90.4224 234.534 84.4569C238.762 79.1725 250.81 70.2242 253.793 70.2242C258.514 70.2242 273.945 80.2293 281.46 88.1207C295.904 103.41 303.044 120.532 305.722 146.32L306.896 157.288H344.474L344.263 146.132C343.793 120.156 334.939 97.5388 319.038 81.7794C308.047 70.8113 297.736 65.5034 283.95 63.5775C277.021 62.6146 265.255 63.695 259.007 65.8087C254.756 67.2414 254.075 67.2414 247.428 65.4095C239.349 63.2018 224.318 62.2388 217.178 63.4836ZM244.352 66.7717C246.865 67.3353 249.072 68.2983 249.26 68.8854C249.472 69.3552 248.203 70.5999 246.466 71.6803C240.876 74.851 235.967 79.2664 231.74 84.6448L227.676 89.9527L220.56 90.0466C207.055 90.2345 194.725 96.1061 187.116 106.111C182.395 112.359 180.962 115.06 178.261 123.609C176.429 129.198 176.124 132.557 176.03 143.83C176.03 159.496 178.167 171.427 183.64 186.435C188.478 199.516 188.572 200.291 185.284 196.534C177.956 188.36 168.914 168.632 166.213 154.986C164.099 144.887 164.663 121.988 167.176 113.04C174.316 87.0639 194.631 68.6975 219.691 65.4095C227.019 64.4465 237.705 65.0337 244.352 66.7717ZM289.845 66.8656C308.728 71.281 326.155 87.5336 334.727 108.695C339.26 119.78 342.924 138.053 343.018 149.303V154.892H308.728L307.553 143.924C304.759 117.079 294.166 95.7303 276.246 80.7225C272.676 77.7398 267.392 73.982 264.503 72.5258C261.591 70.9992 259.195 69.2612 259.195 68.6975C259.195 65.7148 279.628 64.4465 289.845 66.8656ZM225.469 93.3112C225.469 93.8984 224.6 96.1061 223.543 98.1259C222.486 100.24 220.654 105.735 219.597 110.339C217.953 117.361 217.671 121.025 217.953 131.312C218.329 142.092 218.728 144.981 221.335 152.097C226.62 167.199 234.229 176.805 259.007 199.235C283.386 221.265 295.528 234.441 304.665 248.673C314.693 264.174 317.488 272.441 317.394 286.674C317.3 297.454 316.337 301.682 311.029 312.65C305.628 323.9 293.978 335.549 282.423 341.327C272.207 346.423 271.244 346.517 272.113 341.703C275.095 324.205 272.582 308.798 263.728 290.526C259.289 281.484 247.64 265.419 238.081 255.226C234.628 251.656 225.751 242.144 218.141 234.253C200.409 215.487 199.164 214.054 195.03 206.727C189.535 197.027 185.096 186.059 181.925 174.128C178.167 159.989 177.11 137.372 179.6 126.685C183.546 109.869 194.349 97.8441 209.287 93.8984C215.346 92.2543 225.469 91.8786 225.469 93.3112ZM146.837 288.788C147.048 290.033 148.199 295.904 149.256 301.776C156.771 341.421 177.486 369.323 205.717 377.684C217.953 381.348 235.004 379.61 247.147 373.55C253.018 370.567 264.691 358.918 267.486 353.258C269.412 349.406 270.281 348.725 277.303 345.93C288.013 341.609 293.697 337.663 301.87 328.997C311.804 318.522 316.032 309.573 319.508 291.959C320.001 289.281 320.095 289.281 321.152 290.996C321.833 292.264 322.303 298.699 322.209 309.291C322.209 324.088 322.021 326.695 319.508 336.23C308.728 378.247 275.565 406.548 233.36 409.719C194.068 412.608 164.287 398.939 143.572 368.454C134.506 355.066 126.427 334.21 122.458 314.083C120.25 302.739 118.512 288.6 119.193 287.355C119.381 286.956 125.652 286.674 132.98 286.674C146.179 286.674 146.461 286.674 146.837 288.788ZM217.859 299.192C219.104 324.581 226.714 339.096 242.52 346.611C248.297 349.312 250.035 349.688 257.457 349.688C267.18 349.688 267.486 350.064 263.141 356.217C251.961 372.493 231.246 380.666 211.494 376.627C181.15 370.379 159.848 344.098 151.275 302.175C150.219 296.961 149.35 291.301 149.35 289.657V286.674L183.358 286.862L217.272 287.167L217.859 299.192Z" fill="url(#paint0_linear_547_12)"/>
<path d="M217.178 63.4836C210.156 64.7518 200.315 68.4862 194.068 72.244C183.851 78.3974 172.765 91.6672 168.608 102.635C163.888 115.341 163.324 119.005 163.418 137.09C163.418 153.06 163.606 155.08 166.025 162.878C173.235 186.341 183.945 201.63 217.671 236.648C246.372 266.57 255.437 277.82 262.671 292.922C269.6 307.46 272.676 323.618 270.844 335.643C269.224 346.235 268.731 346.893 263.423 347.574C252.055 348.819 238.198 343.91 231.74 336.418C224.013 327.47 220.748 316.972 219.879 298.699L219.198 285.241L168.726 284.936C138.757 284.842 117.737 285.148 117.267 285.617C116.68 286.204 116.985 291.301 118.042 298.887C123.045 336.794 134.999 364.978 154.164 384.424C163.042 393.373 167.763 396.919 177.768 401.922C208.981 417.798 250.623 415.403 280.098 396.144C298.206 384.424 311.992 366.434 318.733 345.836C323.172 332.379 324.229 325.145 324.229 309.291C324.135 269.741 309.291 241.839 268.449 205.2C235.685 175.654 225.657 163.066 221.218 145.169C217.765 131.124 219.879 110.151 225.962 98.1259C228.358 93.3112 228.639 93.1233 231.528 93.7105C241.839 95.7303 253.887 105.829 258.913 116.398C263.047 125.347 264.198 130.631 264.879 144.77L265.466 157.288H277.303C292.828 157.288 293.603 155.456 278.266 155.08L266.899 154.775V145.639C266.899 129.104 262.084 114.003 253.793 104.866C249.472 100.052 239.443 93.4991 235.403 92.7475C230.096 91.7846 229.908 90.4224 234.534 84.4569C238.762 79.1725 250.81 70.2242 253.793 70.2242C258.514 70.2242 273.945 80.2293 281.46 88.1207C295.904 103.41 303.044 120.532 305.722 146.32L306.896 157.288H344.474L344.263 146.132C343.793 120.156 334.939 97.5388 319.038 81.7794C308.047 70.8113 297.736 65.5034 283.95 63.5775C277.021 62.6146 265.255 63.695 259.007 65.8087C254.756 67.2414 254.075 67.2414 247.428 65.4095C239.349 63.2018 224.318 62.2388 217.178 63.4836ZM244.352 66.7717C246.865 67.3353 249.072 68.2983 249.26 68.8854C249.472 69.3552 248.203 70.5999 246.466 71.6803C240.876 74.851 235.967 79.2664 231.74 84.6448L227.676 89.9527L220.56 90.0466C207.055 90.2345 194.725 96.1061 187.116 106.111C182.395 112.359 180.962 115.06 178.261 123.609C176.429 129.198 176.124 132.557 176.03 143.83C176.03 159.496 178.167 171.427 183.64 186.435C188.478 199.516 188.572 200.291 185.284 196.534C177.956 188.36 168.914 168.632 166.213 154.986C164.099 144.887 164.663 121.988 167.176 113.04C174.316 87.0639 194.631 68.6975 219.691 65.4095C227.019 64.4465 237.705 65.0337 244.352 66.7717ZM289.845 66.8656C308.728 71.281 326.155 87.5336 334.727 108.695C339.26 119.78 342.924 138.053 343.018 149.303V154.892H308.728L307.553 143.924C304.759 117.079 294.166 95.7303 276.246 80.7225C272.676 77.7398 267.392 73.982 264.503 72.5258C261.591 70.9992 259.195 69.2612 259.195 68.6975C259.195 65.7148 279.628 64.4465 289.845 66.8656ZM225.469 93.3112C225.469 93.8984 224.6 96.1061 223.543 98.1259C222.486 100.24 220.654 105.735 219.597 110.339C217.953 117.361 217.671 121.025 217.953 131.312C218.329 142.092 218.728 144.981 221.335 152.097C226.62 167.199 234.229 176.805 259.007 199.235C283.386 221.265 295.528 234.441 304.665 248.673C314.693 264.174 317.488 272.441 317.394 286.674C317.3 297.454 316.337 301.682 311.029 312.65C305.628 323.9 293.978 335.549 282.423 341.327C272.207 346.423 271.244 346.517 272.113 341.703C275.095 324.205 272.582 308.798 263.728 290.526C259.289 281.484 247.64 265.419 238.081 255.226C234.628 251.656 225.751 242.144 218.141 234.253C200.409 215.487 199.164 214.054 195.03 206.727C189.535 197.027 185.096 186.059 181.925 174.128C178.167 159.989 177.11 137.372 179.6 126.685C183.546 109.869 194.349 97.8441 209.287 93.8984C215.346 92.2543 225.469 91.8786 225.469 93.3112ZM146.837 288.788C147.048 290.033 148.199 295.904 149.256 301.776C156.771 341.421 177.486 369.323 205.717 377.684C217.953 381.348 235.004 379.61 247.147 373.55C253.018 370.567 264.691 358.918 267.486 353.258C269.412 349.406 270.281 348.725 277.303 345.93C288.013 341.609 293.697 337.663 301.87 328.997C311.804 318.522 316.032 309.573 319.508 291.959C320.001 289.281 320.095 289.281 321.152 290.996C321.833 292.264 322.303 298.699 322.209 309.291C322.209 324.088 322.021 326.695 319.508 336.23C308.728 378.247 275.565 406.548 233.36 409.719C194.068 412.608 164.287 398.939 143.572 368.454C134.506 355.066 126.427 334.21 122.458 314.083C120.25 302.739 118.512 288.6 119.193 287.355C119.381 286.956 125.652 286.674 132.98 286.674C146.179 286.674 146.461 286.674 146.837 288.788ZM217.859 299.192C219.104 324.581 226.714 339.096 242.52 346.611C248.297 349.312 250.035 349.688 257.457 349.688C267.18 349.688 267.486 350.064 263.141 356.217C251.961 372.493 231.246 380.666 211.494 376.627C181.15 370.379 159.848 344.098 151.275 302.175C150.219 296.961 149.35 291.301 149.35 289.657V286.674L183.358 286.862L217.272 287.167L217.859 299.192Z" stroke="url(#paint1_linear_547_12)" stroke-width="8" mask="url(#path-1-outside-1_547_12)"/>
<defs>
<linearGradient id="paint0_linear_547_12" x1="230.723" y1="62.9333" x2="230.723" y2="412.387" gradientUnits="userSpaceOnUse">
<stop stop-color="#FFC6FF"/>
<stop offset="0.275" stop-color="#A0C4FF"/>
<stop offset="0.56" stop-color="#9BF6FF"/>
<stop offset="0.77" stop-color="#A0C4FF"/>
<stop offset="1" stop-color="#FFC6FF"/>
</linearGradient>
<linearGradient id="paint1_linear_547_12" x1="230.723" y1="62.9333" x2="230.723" y2="412.387" gradientUnits="userSpaceOnUse">
<stop stop-color="#FFC6FF"/>
<stop offset="0.28" stop-color="#A0C4FF"/>
<stop offset="0.535" stop-color="#9BF6FF"/>
<stop offset="0.775" stop-color="#A0C4FF"/>
<stop offset="1" stop-color="#FFC6FF"/>
</linearGradient>
</defs>
</svg>
