<?xml version="1.0" encoding="UTF-8"?>
<svg xmlns="http://www.w3.org/2000/svg" xmlns:xlink="http://www.w3.org/1999/xlink" width="80px" height="80px" viewBox="0 0 80 80" version="1.1">
<g id="surface1">
<path style=" stroke:none;fill-rule:nonzero;fill:rgb(0%,0%,0%);fill-opacity:1;" d="M 36.121094 10.558594 C 34.953125 10.769531 33.316406 11.390625 32.277344 12.015625 C 30.578125 13.039062 28.734375 15.246094 28.042969 17.070312 C 27.257812 19.183594 27.164062 19.792969 27.179688 22.800781 C 27.179688 25.457031 27.210938 25.792969 27.613281 27.089844 C 28.8125 30.992188 30.59375 33.535156 36.203125 39.359375 C 40.976562 44.335938 42.484375 46.207031 43.6875 48.71875 C 44.839844 51.136719 45.351562 53.824219 45.046875 55.824219 C 44.777344 57.585938 44.695312 57.695312 43.8125 57.808594 C 41.921875 58.015625 39.617188 57.199219 38.542969 55.953125 C 37.257812 54.464844 36.714844 52.71875 36.570312 49.679688 L 36.457031 47.441406 L 28.0625 47.390625 C 23.078125 47.375 19.582031 47.425781 19.503906 47.503906 C 19.40625 47.601562 19.457031 48.449219 19.632812 49.710938 C 20.464844 56.015625 22.453125 60.703125 25.640625 63.9375 C 27.117188 65.425781 27.902344 66.015625 29.566406 66.847656 C 34.757812 69.488281 41.683594 69.089844 46.585938 65.886719 C 49.597656 63.9375 51.890625 60.945312 53.011719 57.519531 C 53.75 55.28125 53.925781 54.078125 53.925781 51.441406 C 53.910156 44.863281 51.441406 40.222656 44.648438 34.128906 C 39.199219 29.214844 37.53125 27.121094 36.792969 24.144531 C 36.21875 21.808594 36.570312 18.320312 37.582031 16.320312 C 37.980469 15.519531 38.027344 15.488281 38.507812 15.585938 C 40.222656 15.921875 42.226562 17.601562 43.0625 19.359375 C 43.75 20.847656 43.941406 21.726562 44.054688 24.078125 L 44.152344 26.160156 L 46.121094 26.160156 C 48.703125 26.160156 48.832031 25.855469 46.28125 25.792969 L 44.390625 25.742188 L 44.390625 24.222656 C 44.390625 21.472656 43.589844 18.960938 42.210938 17.441406 C 41.492188 16.640625 39.824219 15.550781 39.152344 15.425781 C 38.269531 15.265625 38.238281 15.039062 39.007812 14.046875 C 39.710938 13.167969 41.714844 11.679688 42.210938 11.679688 C 42.996094 11.679688 45.5625 13.34375 46.8125 14.65625 C 49.214844 17.199219 50.402344 20.046875 50.847656 24.335938 L 51.042969 26.160156 L 57.292969 26.160156 L 57.257812 24.304688 C 57.179688 19.984375 55.707031 16.222656 53.0625 13.601562 C 51.234375 11.777344 49.519531 10.894531 47.226562 10.574219 C 46.074219 10.414062 44.117188 10.59375 43.078125 10.945312 C 42.371094 11.183594 42.257812 11.183594 41.152344 10.878906 C 39.808594 10.511719 37.308594 10.351562 36.121094 10.558594 Z M 40.640625 11.105469 C 41.058594 11.199219 41.425781 11.359375 41.457031 11.457031 C 41.492188 11.535156 41.28125 11.742188 40.992188 11.921875 C 40.0625 12.449219 39.246094 13.183594 38.542969 14.078125 L 37.867188 14.960938 L 36.683594 14.976562 C 34.4375 15.007812 32.386719 15.984375 31.121094 17.648438 C 30.335938 18.6875 30.097656 19.136719 29.648438 20.558594 C 29.34375 21.488281 29.292969 22.046875 29.277344 23.921875 C 29.277344 26.527344 29.632812 28.511719 30.542969 31.007812 C 31.347656 33.183594 31.363281 33.3125 30.816406 32.6875 C 29.597656 31.328125 28.09375 28.046875 27.644531 25.777344 C 27.292969 24.097656 27.386719 20.289062 27.804688 18.800781 C 28.992188 14.480469 32.371094 11.425781 36.539062 10.878906 C 37.757812 10.71875 39.535156 10.816406 40.640625 11.105469 Z M 48.207031 11.121094 C 51.347656 11.855469 54.246094 14.558594 55.671875 18.078125 C 56.425781 19.921875 57.035156 22.960938 57.050781 24.832031 L 57.050781 25.761719 L 51.347656 25.761719 L 51.152344 23.9375 C 50.6875 19.472656 48.925781 15.921875 45.945312 13.425781 C 45.351562 12.929688 44.472656 12.304688 43.992188 12.0625 C 43.507812 11.808594 43.109375 11.519531 43.109375 11.425781 C 43.109375 10.929688 46.507812 10.71875 48.207031 11.121094 Z M 37.5 15.519531 C 37.5 15.617188 37.355469 15.984375 37.179688 16.320312 C 37.003906 16.671875 36.699219 17.585938 36.523438 18.351562 C 36.25 19.519531 36.203125 20.128906 36.25 21.839844 C 36.3125 23.632812 36.378906 24.113281 36.8125 25.296875 C 37.691406 27.808594 38.957031 29.40625 43.078125 33.136719 C 47.132812 36.800781 49.152344 38.992188 50.671875 41.359375 C 52.339844 43.9375 52.804688 45.3125 52.789062 47.679688 C 52.773438 49.472656 52.613281 50.175781 51.730469 52 C 50.832031 53.871094 48.894531 55.808594 46.972656 56.769531 C 45.273438 57.617188 45.113281 57.632812 45.257812 56.832031 C 45.753906 53.921875 45.335938 51.359375 43.863281 48.320312 C 43.125 46.816406 41.1875 44.144531 39.597656 42.449219 C 39.023438 41.855469 37.546875 40.273438 36.28125 38.960938 C 33.332031 35.839844 33.125 35.601562 32.4375 34.382812 C 31.523438 32.769531 30.785156 30.945312 30.257812 28.960938 C 29.632812 26.609375 29.457031 22.847656 29.871094 21.070312 C 30.527344 18.273438 32.324219 16.273438 34.808594 15.617188 C 35.816406 15.34375 37.5 15.28125 37.5 15.519531 Z M 24.421875 48.03125 C 24.457031 48.238281 24.648438 49.214844 24.824219 50.191406 C 26.074219 56.785156 29.519531 61.425781 34.214844 62.816406 C 36.25 63.425781 39.085938 63.136719 41.105469 62.128906 C 42.082031 61.632812 44.023438 59.695312 44.488281 58.753906 C 44.808594 58.113281 44.953125 58 46.121094 57.535156 C 47.902344 56.816406 48.847656 56.160156 50.207031 54.71875 C 51.859375 52.976562 52.5625 51.488281 53.140625 48.558594 C 53.222656 48.113281 53.238281 48.113281 53.414062 48.398438 C 53.527344 48.609375 53.605469 49.679688 53.589844 51.441406 C 53.589844 53.902344 53.558594 54.335938 53.140625 55.921875 C 51.347656 62.910156 45.832031 67.617188 38.8125 68.144531 C 32.277344 68.625 27.324219 66.351562 23.878906 61.28125 C 22.371094 59.054688 21.027344 55.585938 20.367188 52.238281 C 20 50.351562 19.710938 48 19.824219 47.792969 C 19.855469 47.726562 20.898438 47.679688 22.117188 47.679688 C 24.3125 47.679688 24.359375 47.679688 24.421875 48.03125 Z M 36.234375 49.761719 C 36.441406 53.984375 37.707031 56.398438 40.335938 57.648438 C 41.296875 58.097656 41.585938 58.160156 42.820312 58.160156 C 44.4375 58.160156 44.488281 58.222656 43.765625 59.246094 C 41.90625 61.953125 38.460938 63.3125 35.175781 62.640625 C 30.128906 61.601562 26.585938 57.230469 25.160156 50.257812 C 24.984375 49.390625 24.839844 48.449219 24.839844 48.175781 L 24.839844 47.679688 L 30.496094 47.710938 L 36.136719 47.761719 Z M 36.234375 49.761719 "/>
</g>
</svg>
