<?xml version="1.0" standalone="no"?>
<!DOCTYPE svg PUBLIC "-//W3C//DTD SVG 20010904//EN"
 "http://www.w3.org/TR/2001/REC-SVG-20010904/DTD/svg10.dtd">
<svg version="1.0" xmlns="http://www.w3.org/2000/svg"
 width="499.000000pt" height="500.000000pt" viewBox="0 0 499.000000 500.000000"
 preserveAspectRatio="xMidYMid meet">

<g transform="translate(0.000000,500.000000) scale(0.100000,-0.100000)"
fill="#000000" stroke="none">
<path d="M2254 4340 c-73 -13 -175 -52 -240 -91 -106 -64 -221 -202 -264 -316
-49 -132 -55 -170 -54 -358 0 -166 2 -187 27 -268 75 -244 186 -403 536 -767
298 -311 392 -428 467 -585 72 -151 104 -319 85 -444 -17 -110 -22 -117 -77
-124 -118 -13 -262 38 -329 116 -80 93 -114 202 -123 392 l-7 140 -524 3
c-311 1 -529 -2 -534 -7 -6 -6 -3 -59 8 -138 52 -394 176 -687 375 -889 92
-93 141 -130 245 -182 324 -165 756 -140 1062 60 188 122 331 309 401 523 46
140 57 215 57 380 -1 411 -155 701 -579 1082 -340 307 -444 438 -490 624 -36
146 -14 364 49 489 25 50 28 52 58 46 107 -21 232 -126 284 -236 43 -93 55
-148 62 -295 l6 -130 123 0 c161 0 169 19 10 23 l-118 3 0 95 c0 172 -50 329
-136 424 -45 50 -149 118 -191 126 -55 10 -57 24 -9 86 44 55 169 148 200 148
49 0 209 -104 287 -186 150 -159 224 -337 252 -605 l12 -114 195 0 195 0 -2
116 c-5 270 -97 505 -262 669 -114 114 -221 169 -364 189 -72 10 -194 -1 -259
-23 -44 -15 -51 -15 -120 4 -84 23 -240 33 -314 20z m282 -34 c26 -6 49 -16
51 -22 2 -5 -11 -18 -29 -29 -58 -33 -109 -79 -153 -135 l-42 -55 -74 -1
c-140 -2 -268 -63 -347 -167 -49 -65 -64 -93 -92 -182 -19 -58 -22 -93 -23
-210 0 -163 22 -287 79 -443 50 -136 51 -144 17 -105 -76 85 -170 290 -198
432 -22 105 -16 343 10 436 74 270 285 461 545 495 76 10 187 4 256 -14z m472
-1 c196 -46 377 -215 466 -435 47 -115 85 -305 86 -422 l0 -58 -178 0 -178 0
-12 114 c-29 279 -139 501 -325 657 -37 31 -92 70 -122 85 -30 16 -55 34 -55
40 0 31 212 44 318 19z m-668 -275 c0 -6 -9 -29 -20 -50 -11 -22 -30 -79 -41
-127 -17 -73 -20 -111 -17 -218 4 -112 8 -142 35 -216 55 -157 134 -257 391
-490 253 -229 379 -366 474 -514 104 -161 133 -247 132 -395 -1 -112 -11 -156
-66 -270 -56 -117 -177 -238 -297 -298 -106 -53 -116 -54 -107 -4 31 182 5
342 -87 532 -46 94 -167 261 -266 367 -36 37 -128 136 -207 218 -184 195 -197
210 -240 286 -57 101 -103 215 -136 339 -39 147 -50 382 -24 493 41 175 153
300 308 341 63 17 168 21 168 6z m-816 -2032 c2 -13 14 -74 25 -135 78 -412
293 -702 586 -789 127 -38 304 -20 430 43 61 31 182 152 211 211 20 40 29 47
102 76 111 45 170 86 255 176 103 109 147 202 183 385 5 28 6 28 17 10 7 -13
12 -80 11 -190 0 -154 -2 -181 -28 -280 -112 -437 -456 -731 -894 -764 -408
-30 -717 112 -932 429 -94 139 -178 356 -219 565 -23 118 -41 265 -34 278 2 4
67 7 143 7 137 0 140 0 144 -22z m737 -108 c13 -264 92 -415 256 -493 60 -28
78 -32 155 -32 101 0 104 -4 59 -68 -116 -169 -331 -254 -536 -212 -315 65
-536 338 -625 774 -11 54 -20 113 -20 130 l0 31 353 -2 352 -3 6 -125z"/>
</g>
</svg>
